<svg width="400" height="260" xmlns="http://www.w3.org/2000/svg"><rect x="30" y="60" width="80" height="40" fill="#fffde7" stroke="#fbc02d"/><text x="70" y="85" font-size="14" text-anchor="middle" fill="#fbc02d">单片机</text><rect x="170" y="60" width="40" height="40" fill="#e8f5e9" stroke="#388e3c"/><text x="190" y="85" font-size="14" text-anchor="middle" fill="#388e3c">P1</text><rect x="250" y="40" width="100" height="30" fill="#e3f2fd" stroke="#1976d2"/><text x="300" y="60" font-size="12" text-anchor="middle" fill="#1976d2">LED1</text><rect x="250" y="80" width="100" height="30" fill="#e3f2fd" stroke="#1976d2"/><text x="300" y="100" font-size="12" text-anchor="middle" fill="#1976d2">LED2</text><rect x="250" y="120" width="100" height="30" fill="#e3f2fd" stroke="#1976d2"/><text x="300" y="140" font-size="12" text-anchor="middle" fill="#1976d2">LED3</text><rect x="250" y="160" width="100" height="30" fill="#e3f2fd" stroke="#1976d2"/><text x="300" y="180" font-size="12" text-anchor="middle" fill="#1976d2">LED4</text><line x1="110" y1="80" x2="170" y2="80" stroke="#388e3c" stroke-width="2"/><line x1="210" y1="70" x2="250" y2="55" stroke="#1976d2" stroke-width="2"/><line x1="210" y1="80" x2="250" y2="95" stroke="#1976d2" stroke-width="2"/><line x1="210" y1="90" x2="250" y2="135" stroke="#1976d2" stroke-width="2"/><line x1="210" y1="100" x2="250" y2="175" stroke="#1976d2" stroke-width="2"/><text x="60" y="120" font-size="12" fill="#888">VCC</text><line x1="60" y1="100" x2="60" y2="120" stroke="#888" stroke-width="2"/><text x="60" y="50" font-size="12" fill="#888">GND</text><line x1="60" y1="60" x2="60" y2="50" stroke="#888" stroke-width="2"/></svg>