<svg width="400" height="220" xmlns="http://www.w3.org/2000/svg"><rect x="20" y="20" width="120" height="40" fill="#e3f2fd" stroke="#1976d2"/><text x="80" y="45" font-size="16" text-anchor="middle" fill="#1976d2">开始</text><rect x="20" y="80" width="120" height="40" fill="#fffde7" stroke="#fbc02d"/><text x="80" y="105" font-size="14" text-anchor="middle" fill="#fbc02d">初始化端口</text><rect x="20" y="140" width="120" height="40" fill="#e8f5e9" stroke="#388e3c"/><text x="80" y="165" font-size="14" text-anchor="middle" fill="#388e3c">点亮第一个LED</text><rect x="200" y="140" width="120" height="40" fill="#e8f5e9" stroke="#388e3c"/><text x="260" y="165" font-size="14" text-anchor="middle" fill="#388e3c">点亮下一个LED</text><rect x="200" y="80" width="120" height="40" fill="#fffde7" stroke="#fbc02d"/><text x="260" y="105" font-size="14" text-anchor="middle" fill="#fbc02d">延时</text><rect x="200" y="20" width="120" height="40" fill="#e3f2fd" stroke="#1976d2"/><text x="260" y="45" font-size="16" text-anchor="middle" fill="#1976d2">结束</text><polygon points="80,60 80,80" fill="none" stroke="#1976d2"/><polygon points="80,80 80,80" fill="none" stroke="#1976d2"/><polygon points="80,120 80,140" fill="none" stroke="#fbc02d"/><polygon points="80,180 200,160" fill="none" stroke="#388e3c"/><polygon points="260,180 260,120" fill="none" stroke="#388e3c"/><polygon points="260,60 260,80" fill="none" stroke="#1976d2"/><polygon points="140,160 200,160" fill="none" stroke="#388e3c"/><polygon points="320,160 320,40 140,40" fill="none" stroke="#1976d2"/><polygon points="140,40 140,40" fill="none" stroke="#1976d2"/></svg>